<svg xmlns="http://www.w3.org/2000/svg" xmlns:xlink="http://www.w3.org/1999/xlink" viewBox="0 2286.5 1600 1041.5" enable-background="new 0 2286.5 1600 1041.5"><defs><path id="a" d="M0 2286.5h1600v1040H0z"/></defs><clipPath id="b"><use xlink:href="#a" overflow="visible"/></clipPath><g clip-path="url(#b)"><linearGradient id="c" gradientUnits="userSpaceOnUse" x1="402.102" y1="827.977" x2="403.781" y2="826.297" gradientTransform="matrix(159 0 0 -207 -63979.039 173703.563)"><stop offset="0" stop-color="#103F63"/><stop offset="1" stop-color="#0B4565"/></linearGradient><path fill="url(#c)" d="M-25 2286.5l1.7 347.7 265.4-241.9z"/><linearGradient id="d" gradientUnits="userSpaceOnUse" x1="403.785" y1="830.367" x2="405.465" y2="828.687" gradientTransform="matrix(308 0 0 -75 -124324.172 64527.516)"><stop offset="0" stop-color="#043A63"/><stop offset="1" stop-color="#0A4066"/></linearGradient><path fill="url(#d)" d="M-25 2286.5l267.1 105.8 250.3-126z"/><linearGradient id="e" gradientUnits="userSpaceOnUse" x1="403.055" y1="828.273" x2="404.735" y2="826.592" gradientTransform="matrix(149 0 0 -240 -59770.035 200982.563)"><stop offset="0" stop-color="#003D67"/><stop offset="1" stop-color="#003E67"/></linearGradient><path fill="url(#e)" d="M242.1 2392.3l250.3-126-38.6 403.2z"/><linearGradient id="f" gradientUnits="userSpaceOnUse" x1="402.606" y1="827.759" x2="404.285" y2="826.079" gradientTransform="matrix(114 0 0 -240 -45469.023 200982.563)"><stop offset="0" stop-color="#074268"/><stop offset="1" stop-color="#014468"/></linearGradient><path fill="url(#f)" d="M492.4 2266.3L645.3 2483l-191.5 186.5z"/><linearGradient id="g" gradientUnits="userSpaceOnUse" x1="402.6" y1="827.875" x2="404.28" y2="826.196" gradientTransform="matrix(173 0 0 -254 -69648.039 212635.563)"><stop offset="0" stop-color="#004566"/><stop offset="1" stop-color="#004468"/></linearGradient><path fill="url(#g)" d="M-23.3 2634.2l265.4-241.9 25.2 426.7z"/><linearGradient id="h" gradientUnits="userSpaceOnUse" x1="402.135" y1="827.507" x2="403.815" y2="825.827" gradientTransform="matrix(126 0 0 -254 -50455.023 212635.563)"><stop offset="0" stop-color="#064467"/><stop offset="1" stop-color="#004568"/></linearGradient><path fill="url(#h)" d="M242.1 2392.3l211.7 277.2L267.3 2819z"/><linearGradient id="i" gradientUnits="userSpaceOnUse" x1="402.202" y1="827.322" x2="403.882" y2="825.642" gradientTransform="matrix(173 0 0 -152 -69648.039 128425.531)"><stop offset="0" stop-color="#004667"/><stop offset="1" stop-color="#004468"/></linearGradient><path fill="url(#i)" d="M-23.3 2634.2L267.3 2819 12 2889.5z"/><linearGradient id="j" gradientUnits="userSpaceOnUse" x1="402.221" y1="827.095" x2="403.901" y2="825.415" gradientTransform="matrix(152 0 0 -170 -61122.035 143421.563)"><stop offset="0" stop-color="#004267"/><stop offset="1" stop-color="#004368"/></linearGradient><path fill="url(#j)" d="M12 2889.5l255.3-70.5-241.9 285.5z"/><linearGradient id="k" gradientUnits="userSpaceOnUse" x1="402.377" y1="827.55" x2="404.057" y2="825.87" gradientTransform="matrix(111 0 0 -274 -44365.023 229340.625)"><stop offset="0" stop-color="#004568"/><stop offset="1" stop-color="#004467"/></linearGradient><path fill="url(#k)" d="M267.3 2819l186.5-149.5-26.9 460.2z"/><linearGradient id="l" gradientUnits="userSpaceOnUse" x1="403.108" y1="826.935" x2="404.788" y2="825.255" gradientTransform="matrix(239 0 0 -185 -96349.055 155826.563)"><stop offset="0" stop-color="#004066"/><stop offset="1" stop-color="#004366"/></linearGradient><path fill="url(#l)" d="M25.4 3104.5L267.3 2819l159.6 310.7z"/><linearGradient id="m" gradientUnits="userSpaceOnUse" x1="403.554" y1="826.972" x2="405.234" y2="825.293" gradientTransform="matrix(224 0 0 -274 -90035.055 229340.625)"><stop offset="0" stop-color="#004567"/><stop offset="1" stop-color="#004567"/></linearGradient><path fill="url(#m)" d="M426.9 3129.7l26.9-460.2L803.2 2992z"/><linearGradient id="n" gradientUnits="userSpaceOnUse" x1="403.953" y1="827.804" x2="405.633" y2="826.124" gradientTransform="matrix(261 0 0 -164 -105004.063 138259.563)"><stop offset="0" stop-color="#0A4767"/><stop offset="1" stop-color="#094868"/></linearGradient><path fill="url(#n)" d="M453.8 2669.5L645.3 2483l246.9 275.5z"/><linearGradient id="o" gradientUnits="userSpaceOnUse" x1="404.272" y1="827.599" x2="405.952" y2="825.92" gradientTransform="matrix(261 0 0 -192 -105004.063 161526.563)"><stop offset="0" stop-color="#044667"/><stop offset="1" stop-color="#004667"/></linearGradient><path fill="url(#o)" d="M453.8 2669.5L803.2 2992l89-233.5z"/><linearGradient id="p" gradientUnits="userSpaceOnUse" x1="404.394" y1="828.232" x2="406.074" y2="826.552" gradientTransform="matrix(182 0 0 -164 -72895.039 138259.563)"><stop offset="0" stop-color="#0C4868"/><stop offset="1" stop-color="#0D4866"/></linearGradient><path fill="url(#p)" d="M645.3 2483l246.9 275.5 58.8-267.1z"/><linearGradient id="q" gradientUnits="userSpaceOnUse" x1="404.098" y1="829.006" x2="405.777" y2="827.326" gradientTransform="matrix(215 0 0 -129 -86351.047 109185.531)"><stop offset="0" stop-color="#0D4167"/><stop offset="1" stop-color="#064166"/></linearGradient><path fill="url(#q)" d="M492.4 2266.3L645.3 2483l208.3-215z"/><linearGradient id="r" gradientUnits="userSpaceOnUse" x1="403.95" y1="828.653" x2="405.63" y2="826.973" gradientTransform="matrix(182 0 0 -133 -72895.039 112494.531)"><stop offset="0" stop-color="#004368"/><stop offset="1" stop-color="#003F65"/></linearGradient><path fill="url(#r)" d="M645.3 2483l305.7 8.4-97.4-223.4z"/><linearGradient id="s" gradientUnits="userSpaceOnUse" x1="404.415" y1="828.969" x2="406.095" y2="827.289" gradientTransform="matrix(109 0 0 -133 -43206.023 112494.531)"><stop offset="0" stop-color="#033C64"/><stop offset="1" stop-color="#043E63"/></linearGradient><path fill="url(#s)" d="M853.6 2268l97.4 223.4 85.7-210z"/><linearGradient id="t" gradientUnits="userSpaceOnUse" x1="404.378" y1="828.597" x2="406.058" y2="826.918" gradientTransform="matrix(121 0 0 -125 -48008.023 105886.531)"><stop offset="0" stop-color="#003B63"/><stop offset="1" stop-color="#003963"/></linearGradient><path fill="url(#t)" d="M951 2491.4l85.7-210 117.5 136.1z"/><linearGradient id="u" gradientUnits="userSpaceOnUse" x1="404.258" y1="827.59" x2="405.938" y2="825.911" gradientTransform="matrix(166 0 0 -159 -66268.039 134129.563)"><stop offset="0" stop-color="#104B68"/><stop offset="1" stop-color="#104866"/></linearGradient><path fill="url(#u)" d="M892.2 2758.5l58.8-267.1 220 204.9z"/><linearGradient id="v" gradientUnits="userSpaceOnUse" x1="404.926" y1="828.331" x2="406.606" y2="826.651" gradientTransform="matrix(131 0 0 -166 -52058.035 139874.563)"><stop offset="0" stop-color="#014065"/><stop offset="1" stop-color="#003E66"/></linearGradient><path fill="url(#v)" d="M951 2491.4l203.2-73.9 16.8 278.8z"/><linearGradient id="w" gradientUnits="userSpaceOnUse" x1="404.178" y1="826.956" x2="405.857" y2="825.276" gradientTransform="matrix(207 0 0 -139 -82926.047 117748.531)"><stop offset="0" stop-color="#004666"/><stop offset="1" stop-color="#004666"/></linearGradient><path fill="url(#w)" d="M803.2 2992l89-233.5 258.7 173z"/><linearGradient id="x" gradientUnits="userSpaceOnUse" x1="404.889" y1="827.753" x2="406.568" y2="826.073" gradientTransform="matrix(166 0 0 -140 -66268.039 118538.531)"><stop offset="0" stop-color="#064868"/><stop offset="1" stop-color="#044767"/></linearGradient><path fill="url(#x)" d="M892.2 2758.5l278.8-62.2-20.1 235.2z"/><linearGradient id="y" gradientUnits="userSpaceOnUse" x1="404.756" y1="826.996" x2="406.436" y2="825.316" gradientTransform="matrix(207 0 0 -121 -82926.047 102965.531)"><stop offset="0" stop-color="#004566"/><stop offset="1" stop-color="#004667"/></linearGradient><path fill="url(#y)" d="M803.2 2992l347.7-60.5-126 203.3z"/><linearGradient id="z" gradientUnits="userSpaceOnUse" x1="404.101" y1="826.881" x2="405.781" y2="825.202" gradientTransform="matrix(233 0 0 -176 -93680.055 148486.563)"><stop offset="0" stop-color="#004468"/><stop offset="1" stop-color="#004467"/></linearGradient><path fill="url(#z)" d="M426.9 3129.7L803.2 2992l15.1 295.6z"/><linearGradient id="A" gradientUnits="userSpaceOnUse" x1="404.024" y1="826.499" x2="405.704" y2="824.82" gradientTransform="matrix(132 0 0 -176 -52551.035 148486.563)"><stop offset="0" stop-color="#004566"/><stop offset="1" stop-color="#004367"/></linearGradient><path fill="url(#A)" d="M803.2 2992l221.7 142.8-206.6 152.8z"/><linearGradient id="B" gradientUnits="userSpaceOnUse" x1="403.755" y1="826.128" x2="405.435" y2="824.448" gradientTransform="matrix(233 0 0 -154 -93680.055 130374.531)"><stop offset="0" stop-color="#004366"/><stop offset="1" stop-color="#004167"/></linearGradient><path fill="url(#B)" d="M426.9 3129.7l391.4 157.9-280.5 100.8z"/><linearGradient id="C" gradientUnits="userSpaceOnUse" x1="402.92" y1="826.21" x2="404.6" y2="824.53" gradientTransform="matrix(172 0 0 -180 -69081.039 151876.563)"><stop offset="0" stop-color="#004166"/><stop offset="1" stop-color="#003D66"/></linearGradient><path fill="url(#C)" d="M426.9 3129.7l110.9 258.7-289 43.7z"/><linearGradient id="D" gradientUnits="userSpaceOnUse" x1="403.442" y1="826.673" x2="405.122" y2="824.994" gradientTransform="matrix(239 0 0 -195 -96349.055 164266.563)"><stop offset="0" stop-color="#004068"/><stop offset="1" stop-color="#003F66"/></linearGradient><path fill="url(#D)" d="M25.4 3104.5l401.5 25.2-178.1 302.4z"/><linearGradient id="E" gradientUnits="userSpaceOnUse" x1="384.019" y1="827.17" x2="385.699" y2="825.491" gradientTransform="matrix(21 0 0 -473 -8088 393892.625)"><stop offset="0" stop-color="#004365"/><stop offset="1" stop-color="#003D66"/></linearGradient><path fill="url(#E)" d="M-23.3 2634.2L12 2889.5l-25.2 539.2z"/><linearGradient id="F" gradientUnits="userSpaceOnUse" x1="385.889" y1="826.804" x2="387.569" y2="825.125" gradientTransform="matrix(23 0 0 -321 -8892 268340.688)"><stop offset="0" stop-color="#004168"/><stop offset="1" stop-color="#003D68"/></linearGradient><path fill="url(#F)" d="M12 2889.5l13.4 215-38.6 324.2z"/><linearGradient id="G" gradientUnits="userSpaceOnUse" x1="401.851" y1="826.117" x2="403.531" y2="824.438" gradientTransform="matrix(156 0 0 -195 -62757.039 164266.563)"><stop offset="0" stop-color="#003F68"/><stop offset="1" stop-color="#003966"/></linearGradient><path fill="url(#G)" d="M25.4 3104.5l223.4 327.6-262-3.4z"/><linearGradient id="H" gradientUnits="userSpaceOnUse" x1="403.917" y1="826.443" x2="405.597" y2="824.763" gradientTransform="matrix(167 0 0 -236 -66884.039 198282.563)"><stop offset="0" stop-color="#003E68"/><stop offset="1" stop-color="#003F68"/></linearGradient><path fill="url(#H)" d="M537.8 3388.4l280.5-100.8L667.1 3684z"/><linearGradient id="I" gradientUnits="userSpaceOnUse" x1="404.034" y1="825.997" x2="405.714" y2="824.317" gradientTransform="matrix(225 0 0 -236 -90297.055 198282.563)"><stop offset="0" stop-color="#003E68"/><stop offset="1" stop-color="#004068"/></linearGradient><path fill="url(#I)" d="M667.1 3684l151.2-396.4 226.8 258.7z"/><linearGradient id="J" gradientUnits="userSpaceOnUse" x1="404.488" y1="826.756" x2="406.168" y2="825.077" gradientTransform="matrix(135 0 0 -245 -53757.035 205634.563)"><stop offset="0" stop-color="#004167"/><stop offset="1" stop-color="#004268"/></linearGradient><path fill="url(#J)" d="M818.3 3287.6l206.6-152.8 20.2 411.5z"/><linearGradient id="K" gradientUnits="userSpaceOnUse" x1="404.651" y1="826.269" x2="406.331" y2="824.59" gradientTransform="matrix(181 0 0 -245 -72264.039 205634.563)"><stop offset="0" stop-color="#004269"/><stop offset="1" stop-color="#003F69"/></linearGradient><path fill="url(#K)" d="M1024.9 3134.8l20.2 411.5 283.8-129.3z"/><linearGradient id="L" gradientUnits="userSpaceOnUse" x1="404.727" y1="826.57" x2="406.407" y2="824.891" gradientTransform="matrix(283 0 0 -155 -113574.063 131083.531)"><stop offset="0" stop-color="#004568"/><stop offset="1" stop-color="#004366"/></linearGradient><path fill="url(#L)" d="M1024.9 3134.8l126-203.3 349.4 260.4z"/><linearGradient id="M" gradientUnits="userSpaceOnUse" x1="405.127" y1="826.498" x2="406.807" y2="824.818" gradientTransform="matrix(283 0 0 -168 -113574.063 141955.563)"><stop offset="0" stop-color="#004368"/><stop offset="1" stop-color="#004067"/></linearGradient><path fill="url(#M)" d="M1024.9 3134.8l304 282.2 171.4-225.1z"/><linearGradient id="N" gradientUnits="userSpaceOnUse" x1="404.753" y1="827.045" x2="406.433" y2="825.365" gradientTransform="matrix(240 0 0 -142 -96084.055 120192.531)"><stop offset="0" stop-color="#004768"/><stop offset="1" stop-color="#004668"/></linearGradient><path fill="url(#N)" d="M1150.9 2931.5l20.1-235.2 383 238.6z"/><linearGradient id="O" gradientUnits="userSpaceOnUse" x1="405.504" y1="827.146" x2="407.184" y2="825.466" gradientTransform="matrix(240 0 0 -155 -96084.055 131083.531)"><stop offset="0" stop-color="#004568"/><stop offset="1" stop-color="#004367"/></linearGradient><path fill="url(#O)" d="M1150.9 2931.5l349.4 260.4 53.7-257z"/><linearGradient id="P" gradientUnits="userSpaceOnUse" x1="405.592" y1="827.847" x2="407.272" y2="826.168" gradientTransform="matrix(228 0 0 -146 -91212.055 123496.531)"><stop offset="0" stop-color="#0B4966"/><stop offset="1" stop-color="#034466"/></linearGradient><path fill="url(#P)" d="M1171 2696.3l383 238.6-5-245.3z"/><linearGradient id="Q" gradientUnits="userSpaceOnUse" x1="405.098" y1="827.981" x2="406.778" y2="826.301" gradientTransform="matrix(211 0 0 -166 -84337.047 139874.563)"><stop offset="0" stop-color="#003C64"/><stop offset="1" stop-color="#003C64"/></linearGradient><path fill="url(#Q)" d="M1154.2 2417.5l16.8 278.8 337.7-216.7z"/><linearGradient id="R" gradientUnits="userSpaceOnUse" x1="405.147" y1="828.117" x2="406.827" y2="826.437" gradientTransform="matrix(225 0 0 -129 -89997.055 109312.531)"><stop offset="0" stop-color="#0C4565"/><stop offset="1" stop-color="#033A62"/></linearGradient><path fill="url(#R)" d="M1171 2696.3l378-6.7-40.3-210z"/><linearGradient id="S" gradientUnits="userSpaceOnUse" x1="405.075" y1="829.97" x2="406.755" y2="828.29" gradientTransform="matrix(211 0 0 -81 -84407.047 69498.531)"><stop offset="0" stop-color="#134263"/><stop offset="1" stop-color="#083E64"/></linearGradient><path fill="url(#S)" d="M1036.7 2281.4l117.5 136.1 236.9-132.7z"/><linearGradient id="T" gradientUnits="userSpaceOnUse" x1="405.166" y1="828.967" x2="406.846" y2="827.287" gradientTransform="matrix(211 0 0 -116 -84337.047 98445.531)"><stop offset="0" stop-color="#114164"/><stop offset="1" stop-color="#124063"/></linearGradient><path fill="url(#T)" d="M1154.2 2417.5l354.5 62.1-117.6-194.8z"/><linearGradient id="U" gradientUnits="userSpaceOnUse" x1="406.146" y1="829.126" x2="407.826" y2="827.447" gradientTransform="matrix(141 0 0 -121 -55846.035 102575.531)"><stop offset="0" stop-color="#274B66"/><stop offset="1" stop-color="#113F64"/></linearGradient><path fill="url(#U)" d="M1391.1 2284.8l117.6 194.8 119.2-203.2z"/><linearGradient id="V" gradientUnits="userSpaceOnUse" x1="407.63" y1="828.296" x2="409.31" y2="826.616" gradientTransform="matrix(71 0 0 -125 -27426.018 106004.531)"><stop offset="0" stop-color="#003C63"/><stop offset="1" stop-color="#003E66"/></linearGradient><path fill="url(#V)" d="M1508.7 2479.6l40.3 210 78.9-188.1z"/><linearGradient id="W" gradientUnits="userSpaceOnUse" x1="407.573" y1="828.772" x2="409.253" y2="827.092" gradientTransform="matrix(71 0 0 -134 -27426.018 113326.531)"><stop offset="0" stop-color="#003661"/><stop offset="1" stop-color="#003965"/></linearGradient><path fill="url(#W)" d="M1508.7 2479.6l119.2-203.2v225.1z"/><linearGradient id="X" gradientUnits="userSpaceOnUse" x1="409.033" y1="827.122" x2="410.713" y2="825.442" gradientTransform="matrix(45 0 0 -146 -16872.016 123496.531)"><stop offset="0" stop-color="#064667"/><stop offset="1" stop-color="#004768"/></linearGradient><path fill="url(#X)" d="M1549 2689.6l5 245.3 70.6-40.4z"/><linearGradient id="Y" gradientUnits="userSpaceOnUse" x1="409.39" y1="827.821" x2="411.069" y2="826.141" gradientTransform="matrix(47 0 0 -234 -17682.016 196160.563)"><stop offset="0" stop-color="#184866"/><stop offset="1" stop-color="#003F68"/></linearGradient><path fill="url(#Y)" d="M1549 2689.6l78.9-188.1-3.3 393z"/><linearGradient id="Z" gradientUnits="userSpaceOnUse" x1="407.111" y1="826.533" x2="408.791" y2="824.854" gradientTransform="matrix(75 0 0 -153 -29051.018 129431.531)"><stop offset="0" stop-color="#003E64"/><stop offset="1" stop-color="#004166"/></linearGradient><path fill="url(#Z)" d="M1500.3 3191.9l53.7-257 72.3 231.8z"/><linearGradient id="aa" gradientUnits="userSpaceOnUse" x1="409.953" y1="827.237" x2="411.633" y2="825.557" gradientTransform="matrix(43 0 0 -162 -16059.004 136850.563)"><stop offset="0" stop-color="#004467"/><stop offset="1" stop-color="#004367"/></linearGradient><path fill="url(#aa)" d="M1554 2934.9l70.6-40.4 1.7 272.2z"/><linearGradient id="ab" gradientUnits="userSpaceOnUse" x1="405.438" y1="825.884" x2="407.118" y2="824.204" gradientTransform="matrix(181 0 0 -144 -72083.039 122141.531)"><stop offset="0" stop-color="#003E68"/><stop offset="1" stop-color="#003C65"/></linearGradient><path fill="url(#ab)" d="M1328.9 3417l171.4-225.1 132.7 241.9z"/><linearGradient id="ac" gradientUnits="userSpaceOnUse" x1="407.591" y1="826.553" x2="409.271" y2="824.874" gradientTransform="matrix(79 0 0 -159 -30671.019 134531.563)"><stop offset="0" stop-color="#003D65"/><stop offset="1" stop-color="#003C66"/></linearGradient><path fill="url(#ac)" d="M1500.3 3191.9l126-25.2 6.7 267.1z"/></g></svg>