<svg xmlns="http://www.w3.org/2000/svg" xmlns:xlink="http://www.w3.org/1999/xlink" viewBox="0 0 1600 3328" enable-background="new 0 0 1600 3328"><defs><path id="a" d="M0 0h1600v3328H0z"/></defs><clipPath id="b"><use xlink:href="#a" overflow="visible"/></clipPath><g clip-path="url(#b)"><g opacity=".2"><linearGradient id="c" gradientUnits="userSpaceOnUse" x1="403.685" y1="1975.812" x2="404.733" y2="1974.764" gradientTransform="matrix(396 0 0 -352 -159616.188 696204.188)"><stop offset="0" stop-color="#BABABA"/><stop offset="1" stop-color="#BCBCBC"/></linearGradient><path fill="url(#c)" d="M590.3 710.5l76.4 368.6-414.7-36.6z"/><linearGradient id="d" gradientUnits="userSpaceOnUse" x1="403.213" y1="1980.841" x2="404.26" y2="1979.793" gradientTransform="matrix(282 0 0 -169 -112558.063 335887.031)"><stop offset="0" stop-color="#D6D6D6"/><stop offset="1" stop-color="#C6C6C6"/></linearGradient><path fill="url(#d)" d="M1182.1 1281.3l295.3-52.4-137.2-124.6z"/><linearGradient id="e" gradientUnits="userSpaceOnUse" x1="403.878" y1="1985.116" x2="404.925" y2="1984.068" gradientTransform="matrix(425 0 0 -119 -170322.188 237337.031)"><stop offset="0" stop-color="#D3D3D3"/><stop offset="1" stop-color="#DBDBDB"/></linearGradient><path fill="url(#e)" d="M1477.4 1228.9l308-70.2-445.2-54.4z"/><linearGradient id="f" gradientUnits="userSpaceOnUse" x1="403.77" y1="1980.279" x2="404.817" y2="1979.231" gradientTransform="matrix(396 0 0 -183 -159616.188 363422.031)"><stop offset="0" stop-color="#CACACA"/><stop offset="1" stop-color="#F2F2F2"/></linearGradient><path fill="url(#f)" d="M252 1042.5l414.7 36.6L430 1234.2z"/><linearGradient id="g" gradientUnits="userSpaceOnUse" x1="402.941" y1="1976.247" x2="403.988" y2="1975.2" gradientTransform="matrix(282 0 0 -304 -113276.063 602096.188)"><stop offset="0" stop-color="#ECECEC"/><stop offset="1" stop-color="#EFEFEF"/></linearGradient><path fill="url(#g)" d="M412.2 1673l313.2-247.2L430 1234.2z"/><linearGradient id="h" gradientUnits="userSpaceOnUse" x1="403.306" y1="1976.183" x2="404.353" y2="1975.136" gradientTransform="matrix(282 0 0 -331 -113276.063 655165.188)"><stop offset="0" stop-color="#E7E7E7"/><stop offset="1" stop-color="#E0E0E0"/></linearGradient><path fill="url(#h)" d="M666.7 1079.1l58.7 346.7L430 1234.2z"/><linearGradient id="i" gradientUnits="userSpaceOnUse" x1="402.831" y1="1975.736" x2="403.878" y2="1974.688" gradientTransform="matrix(254 0 0 -346 -102190.063 684695.188)"><stop offset="0" stop-color="#BABABA"/><stop offset="1" stop-color="#BCBCBC"/></linearGradient><path fill="url(#i)" d="M252 1042.5l178 191.7-266 170.7z"/><linearGradient id="j" gradientUnits="userSpaceOnUse" x1="403.119" y1="1976.681" x2="404.359" y2="1975.441" gradientTransform="matrix(266 0 0 -304 -107050.063 602096.188)"><stop offset="0" stop-color="#CACACA"/><stop offset="1" stop-color="#F2F2F2"/></linearGradient><path fill="url(#j)" d="M430 1234.2L412.2 1673 164 1404.9z"/><linearGradient id="k" gradientUnits="userSpaceOnUse" x1="403.546" y1="1975.93" x2="404.593" y2="1974.882" gradientTransform="matrix(350 0 0 -346 -141336.188 684695.188)"><stop offset="0" stop-color="#D5D5D5"/><stop offset="1" stop-color="#D2D2D2"/></linearGradient><path fill="url(#k)" d="M164 1404.9l88-362.4-366.6 285.9z"/><linearGradient id="l" gradientUnits="userSpaceOnUse" x1="402.42" y1="1975.22" x2="403.467" y2="1974.172" gradientTransform="matrix(211 0 0 -396 -84658.047 782224.125)"><stop offset="0" stop-color="#C7C7C7"/><stop offset="1" stop-color="#BEBEBE"/></linearGradient><path fill="url(#l)" d="M286.5 387.9l11.6-414.8 209.4 255.5z"/><linearGradient id="m" gradientUnits="userSpaceOnUse" x1="403.345" y1="1974.85" x2="404.392" y2="1973.803" gradientTransform="matrix(290 0 0 -460 -116653.156 908612.125)"><stop offset="0" stop-color="#D6D6D6"/><stop offset="1" stop-color="#C6C6C6"/></linearGradient><path fill="url(#m)" d="M286.5 387.9l303.8 322.6-82.8-481.9z"/><linearGradient id="n" gradientUnits="userSpaceOnUse" x1="403.576" y1="1978.722" x2="404.624" y2="1977.674" gradientTransform="matrix(380 0 0 -219 -151978.188 433261.063)"><stop offset="0" stop-color="#F5F5F5"/><stop offset="1" stop-color="#F7F7F7"/></linearGradient><path fill="url(#n)" d="M1464.9 101.9l37.7-229.4 360.3 193.8z"/><linearGradient id="o" gradientUnits="userSpaceOnUse" x1="403.878" y1="1979.115" x2="404.926" y2="1978.068" gradientTransform="matrix(344 0 0 -220 -137362.172 435197.063)"><stop offset="0" stop-color="#F6F6F6"/><stop offset="1" stop-color="#F8F8F8"/></linearGradient><path fill="url(#o)" d="M1502.6-127.5l334.1-36.6 26.2 230.4z"/><linearGradient id="p" gradientUnits="userSpaceOnUse" x1="403.294" y1="1976.572" x2="404.341" y2="1975.525" gradientTransform="matrix(282 0 0 -315 -112938.063 622305.188)"><stop offset="0" stop-color="#EDEDED"/><stop offset="1" stop-color="#ddd"/></linearGradient><path fill="url(#p)" d="M1067.9-307.6l11.5 329.9-295.3-42.9z"/><linearGradient id="q" gradientUnits="userSpaceOnUse" x1="404.008" y1="1978.217" x2="405.055" y2="1977.17" gradientTransform="matrix(464 0 0 -244 -187112.094 482632.063)"><stop offset="0" stop-color="#BABABA"/><stop offset="1" stop-color="#BCBCBC"/></linearGradient><path fill="url(#q)" d="M298.1-26.9l209.4 255.5L784.1-20.6z"/><linearGradient id="r" gradientUnits="userSpaceOnUse" x1="403.423" y1="1978.238" x2="404.471" y2="1977.19" gradientTransform="matrix(328 0 0 -238 -131832.172 470812.063)"><stop offset="0" stop-color="#BEBEBE"/><stop offset="1" stop-color="#D0D0D0"/></linearGradient><path fill="url(#r)" d="M507.5 228.6l343.6-93.2-67-156z"/><linearGradient id="s" gradientUnits="userSpaceOnUse" x1="403.257" y1="1982.63" x2="404.305" y2="1981.582" gradientTransform="matrix(282 0 0 -149 -112938.063 295393.031)"><stop offset="0" stop-color="#D3D3D3"/><stop offset="1" stop-color="#D7D7D7"/></linearGradient><path fill="url(#s)" d="M851.1 135.4l228.3-113.1-295.3-42.9z"/><linearGradient id="t" gradientUnits="userSpaceOnUse" x1="403.687" y1="1975.295" x2="404.735" y2="1974.248" gradientTransform="matrix(403 0 0 -404 -162810.188 797992.125)"><stop offset="0" stop-color="#D6D6D6"/><stop offset="1" stop-color="#C6C6C6"/></linearGradient><path fill="url(#t)" d="M286.5 387.9l11.6-414.8L-124 396.2z"/><linearGradient id="u" gradientUnits="userSpaceOnUse" x1="403.599" y1="1973.772" x2="404.647" y2="1972.725" gradientTransform="matrix(403 0 0 -610 -162810.188 1203812.25)"><stop offset="0" stop-color="#C3C3C3"/><stop offset="1" stop-color="#C2C2C2"/></linearGradient><path fill="url(#u)" d="M-124 396.2L298.1-26.9-82.1-242.7z"/><linearGradient id="v" gradientUnits="userSpaceOnUse" x1="403.466" y1="1974.58" x2="404.514" y2="1973.533" gradientTransform="matrix(366 0 0 -460 -147222.188 908612.125)"><stop offset="0" stop-color="#ddd"/><stop offset="1" stop-color="#C9C9C9"/></linearGradient><path fill="url(#v)" d="M507.5 228.6l82.8 481.9 300.6-71.3z"/><linearGradient id="w" gradientUnits="userSpaceOnUse" x1="403.82" y1="1974.777" x2="404.867" y2="1973.73" gradientTransform="matrix(366 0 0 -481 -147222.188 949914.125)"><stop offset="0" stop-color="#D1D1D1"/><stop offset="1" stop-color="#D0D0D0"/></linearGradient><path fill="url(#w)" d="M507.5 228.6l343.6-93.2 39.8 503.8z"/><linearGradient id="x" gradientUnits="userSpaceOnUse" x1="403.336" y1="1975.126" x2="404.384" y2="1974.078" gradientTransform="matrix(287 0 0 -420 -115148.063 830164.125)"><stop offset="0" stop-color="#D6D6D6"/><stop offset="1" stop-color="#C6C6C6"/></linearGradient><path fill="url(#x)" d="M590.3 710.5l76.4 368.6 224.2-439.9z"/><linearGradient id="y" gradientUnits="userSpaceOnUse" x1="403.46" y1="1977.105" x2="404.507" y2="1976.057" gradientTransform="matrix(304 0 0 -278 -121621.172 550617.188)"><stop offset="0" stop-color="#D0D0D0"/><stop offset="1" stop-color="#C0C0C0"/></linearGradient><path fill="url(#y)" d="M1182.1 1281.3l158.1-177-318.4-114.2z"/><linearGradient id="z" gradientUnits="userSpaceOnUse" x1="403.423" y1="1975.197" x2="404.471" y2="1974.149" gradientTransform="matrix(304 0 0 -405 -121621.172 800638.125)"><stop offset="0" stop-color="#B9B9B9"/><stop offset="1" stop-color="#BABABA"/></linearGradient><path fill="url(#z)" d="M1244.9 680.1l95.3 424.2-318.4-114.2z"/><linearGradient id="A" gradientUnits="userSpaceOnUse" x1="403.589" y1="1975.102" x2="404.637" y2="1974.055" gradientTransform="matrix(339 0 0 -416 -136135.172 822615.125)"><stop offset="0" stop-color="#D3D3D3"/><stop offset="1" stop-color="#ccc"/></linearGradient><path fill="url(#A)" d="M666.7 1079.1l58.7 346.7 296.4-435.7z"/><linearGradient id="B" gradientUnits="userSpaceOnUse" x1="403.449" y1="1974.962" x2="404.497" y2="1973.915" gradientTransform="matrix(339 0 0 -420 -136135.172 830164.125)"><stop offset="0" stop-color="#C3C3C3"/><stop offset="1" stop-color="#C2C2C2"/></linearGradient><path fill="url(#B)" d="M666.7 1079.1l224.2-439.9 130.9 350.9z"/><linearGradient id="C" gradientUnits="userSpaceOnUse" x1="403.784" y1="1974.967" x2="404.831" y2="1973.92" gradientTransform="matrix(436 0 0 -416 -175364.094 822615.125)"><stop offset="0" stop-color="#bbb"/><stop offset="1" stop-color="#D8D8D8"/></linearGradient><path fill="url(#C)" d="M725.4 1425.8l456.7-144.5-160.3-291.2z"/><linearGradient id="D" gradientUnits="userSpaceOnUse" x1="403.637" y1="1976.156" x2="404.685" y2="1975.108" gradientTransform="matrix(338 0 0 -335 -135516.172 662629.188)"><stop offset="0" stop-color="#D1D1D1"/><stop offset="1" stop-color="#D0D0D0"/></linearGradient><path fill="url(#D)" d="M890.9 639.2l354 40.9-223.1 310z"/><linearGradient id="E" gradientUnits="userSpaceOnUse" x1="403.826" y1="1981.451" x2="404.873" y2="1980.404" gradientTransform="matrix(392 0 0 -167 -158355.188 331261.031)"><stop offset="0" stop-color="#BABABA"/><stop offset="1" stop-color="#BCBCBC"/></linearGradient><path fill="url(#E)" d="M-124 396.2l410.5-8.3-136.1 174.9z"/><linearGradient id="F" gradientUnits="userSpaceOnUse" x1="403.71" y1="1976.511" x2="404.757" y2="1975.464" gradientTransform="matrix(420 0 0 -308 -169433.188 609172.188)"><stop offset="0" stop-color="#D1D1D1"/><stop offset="1" stop-color="#D0D0D0"/></linearGradient><path fill="url(#F)" d="M286.5 387.9l303.8 322.6-439.9-147.7z"/><linearGradient id="G" gradientUnits="userSpaceOnUse" x1="403.013" y1="1974.752" x2="404.06" y2="1973.704" gradientTransform="matrix(223 0 0 -468 -88603.055 924748.125)"><stop offset="0" stop-color="#D3D3D3"/><stop offset="1" stop-color="#ccc"/></linearGradient><path fill="url(#G)" d="M1244.9 680.1l95.3 424.2 138.3-490.2z"/><linearGradient id="H" gradientUnits="userSpaceOnUse" x1="403.757" y1="1974.127" x2="404.805" y2="1973.079" gradientTransform="matrix(425 0 0 -520 -170322.188 1027240.125)"><stop offset="0" stop-color="#D6D6D6"/><stop offset="1" stop-color="#E6E6E6"/></linearGradient><path fill="url(#H)" d="M1340.2 1104.3l445.2 54.4-306.9-544.6z"/><linearGradient id="I" gradientUnits="userSpaceOnUse" x1="403.497" y1="1977.903" x2="404.545" y2="1976.855" gradientTransform="matrix(282 0 0 -249 -112558.063 493686.063)"><stop offset="0" stop-color="#E7E7E7"/><stop offset="1" stop-color="#E0E0E0"/></linearGradient><path fill="url(#I)" d="M1182.1 1281.3l295.3-52.4-111 260.8z"/><linearGradient id="J" gradientUnits="userSpaceOnUse" x1="402.39" y1="1976.117" x2="403.437" y2="1975.07" gradientTransform="matrix(180 0 0 -325 -71072.039 643482.188)"><stop offset="0" stop-color="#ECECEC"/><stop offset="1" stop-color="#E7E7E7"/></linearGradient><path fill="url(#J)" d="M1366.4 1489.7l111-260.8 77.5 340.4z"/><linearGradient id="K" gradientUnits="userSpaceOnUse" x1="403.037" y1="1975.6" x2="404.084" y2="1974.552" gradientTransform="matrix(261 0 0 -353 -104138.063 698720.188)"><stop offset="0" stop-color="#ECECEC"/><stop offset="1" stop-color="#EFEFEF"/></linearGradient><path fill="url(#K)" d="M1182.1 1281.3l184.3 208.4L1093 1651z"/><linearGradient id="L" gradientUnits="userSpaceOnUse" x1="403.481" y1="1982.051" x2="405.67" y2="1979.862" gradientTransform="matrix(441 0 0 -154 -177038.094 306690.031)"><stop offset="0" stop-color="#E9E9E9"/><stop offset="1" stop-color="#F2F2F2"/></linearGradient><path fill="url(#L)" d="M1366.4 1489.7l432.6 152.8-706 8.5z"/><linearGradient id="M" gradientUnits="userSpaceOnUse" x1="404.035" y1="1975.907" x2="405.082" y2="1974.859" gradientTransform="matrix(436 0 0 -353 -175364.094 698720.188)"><stop offset="0" stop-color="#CACACA"/><stop offset="1" stop-color="#F2F2F2"/></linearGradient><path fill="url(#M)" d="M725.4 1425.8l456.7-144.5L1093 1651z"/><linearGradient id="N" gradientUnits="userSpaceOnUse" x1="402.424" y1="1981.637" x2="404.678" y2="1979.383" gradientTransform="matrix(226 0 0 -165 -91070.055 328290.031)"><stop offset="0" stop-color="#E7E7E7"/><stop offset="1" stop-color="#E0E0E0"/></linearGradient><path fill="url(#N)" d="M164 1404.9L412.2 1673l-449.9-167.3z"/><linearGradient id="O" gradientUnits="userSpaceOnUse" x1="402.954" y1="1980.086" x2="404.001" y2="1979.039" gradientTransform="matrix(266 0 0 -183 -107316.063 363695.031)"><stop offset="0" stop-color="#EDEDED"/><stop offset="1" stop-color="#DFDFDF"/></linearGradient><path fill="url(#O)" d="M-114.6 1328.4l278.6 76.5-230.4 115.2z"/><linearGradient id="P" gradientUnits="userSpaceOnUse" x1="403.078" y1="1975.376" x2="404.125" y2="1974.329" gradientTransform="matrix(262 0 0 -401 -105705.063 792483.125)"><stop offset="0" stop-color="#C7C7C7"/><stop offset="1" stop-color="#BEBEBE"/></linearGradient><path fill="url(#P)" d="M-124 396.2l274.4 166.6-63.9 253.4z"/><linearGradient id="Q" gradientUnits="userSpaceOnUse" x1="402.262" y1="1972.822" x2="403.309" y2="1971.774" gradientTransform="matrix(201 0 0 -890 -81000.047 1756302.375)"><stop offset="0" stop-color="#C3C3C3"/><stop offset="1" stop-color="#C2C2C2"/></linearGradient><path fill="url(#Q)" d="M-124 396.2l9.4 932.2L86.5 816.2z"/><linearGradient id="R" gradientUnits="userSpaceOnUse" x1="403.768" y1="1977.907" x2="404.815" y2="1976.859" gradientTransform="matrix(481 0 0 -242 -194199.109 479253.063)"><stop offset="0" stop-color="#BABABA"/><stop offset="1" stop-color="#BCBCBC"/></linearGradient><path fill="url(#R)" d="M150.4 562.8l439.9 147.7L86.5 816.2z"/><linearGradient id="S" gradientUnits="userSpaceOnUse" x1="404.007" y1="1976.454" x2="405.054" y2="1975.406" gradientTransform="matrix(481 0 0 -317 -194199.109 627219.188)"><stop offset="0" stop-color="#D6D6D6"/><stop offset="1" stop-color="#C6C6C6"/></linearGradient><path fill="url(#S)" d="M252 1042.5l338.3-332L86.5 816.2z"/><linearGradient id="T" gradientUnits="userSpaceOnUse" x1="403.375" y1="1974.354" x2="404.422" y2="1973.307" gradientTransform="matrix(350 0 0 -489 -141336.188 966332.125)"><stop offset="0" stop-color="#D4D4D4"/><stop offset="1" stop-color="#B5B5B5"/></linearGradient><path fill="url(#T)" d="M-114.6 1328.4L252 1042.5 86.5 816.2z"/><linearGradient id="U" gradientUnits="userSpaceOnUse" x1="402.867" y1="1976.437" x2="403.914" y2="1975.389" gradientTransform="matrix(235 0 0 -315 -93632.055 622305.188)"><stop offset="0" stop-color="#F2F2F2"/><stop offset="1" stop-color="#EDEDED"/></linearGradient><path fill="url(#U)" d="M1067.9-307.6l11.5 329.9L1314-151.6z"/><linearGradient id="V" gradientUnits="userSpaceOnUse" x1="403.691" y1="1978.172" x2="404.738" y2="1977.125" gradientTransform="matrix(368 0 0 -242 -147486.188 478571.063)"><stop offset="0" stop-color="#E9E9E9"/><stop offset="1" stop-color="#F2F2F2"/></linearGradient><path fill="url(#V)" d="M1079.4 22.3l385.5 79.6L1314-151.6z"/><linearGradient id="W" gradientUnits="userSpaceOnUse" x1="402.607" y1="1978.377" x2="403.655" y2="1977.33" gradientTransform="matrix(180 0 0 -242 -71122.039 478571.063)"><stop offset="0" stop-color="#F4F4F4"/><stop offset="1" stop-color="#F4F4F4"/></linearGradient><path fill="url(#W)" d="M1464.9 101.9l37.7-229.4-188.6-24.1z"/><linearGradient id="X" gradientUnits="userSpaceOnUse" x1="404.05" y1="1974.357" x2="405.098" y2="1973.309" gradientTransform="matrix(445 0 0 -520 -178290.094 1027240.125)"><stop offset="0" stop-color="#E3E3E3"/><stop offset="1" stop-color="#FBFBFB"/></linearGradient><path fill="url(#X)" d="M1478.5 614.1l306.9 544.6 159.2-343.5z"/><linearGradient id="Y" gradientUnits="userSpaceOnUse" x1="404.194" y1="1977.899" x2="405.242" y2="1976.851" gradientTransform="matrix(455 0 0 -255 -182340.094 504862.063)"><stop offset="0" stop-color="#E0E0E0"/><stop offset="1" stop-color="#FAFAFA"/></linearGradient><path fill="url(#Y)" d="M1478.5 614.1l476.5-66-10.4 267.1z"/><linearGradient id="Z" gradientUnits="userSpaceOnUse" x1="403.334" y1="1981.276" x2="404.381" y2="1980.229" gradientTransform="matrix(313 0 0 -165 -124864.172 327046.031)"><stop offset="0" stop-color="#F0F0F0"/><stop offset="1" stop-color="#F5F5F5"/></linearGradient><path fill="url(#Z)" d="M1442.9 274.7l22-172.8L1770.7 236z"/><linearGradient id="aa" gradientUnits="userSpaceOnUse" x1="403.566" y1="1975.802" x2="404.613" y2="1974.754" gradientTransform="matrix(313 0 0 -361 -124864.172 713490.188)"><stop offset="0" stop-color="#EBEBEB"/><stop offset="1" stop-color="#E5E5E5"/></linearGradient><path fill="url(#aa)" d="M1442.9 274.7l35.6 339.4L1770.7 236z"/><linearGradient id="ab" gradientUnits="userSpaceOnUse" x1="403.999" y1="1981.885" x2="405.046" y2="1980.838" gradientTransform="matrix(380 0 0 -162 -151978.188 321099.031)"><stop offset="0" stop-color="#F6F6F6"/><stop offset="1" stop-color="#F8F8F8"/></linearGradient><path fill="url(#ab)" d="M1464.9 101.9l398-35.6-92.2 169.7z"/><linearGradient id="ac" gradientUnits="userSpaceOnUse" x1="403.896" y1="1975.672" x2="404.943" y2="1974.624" gradientTransform="matrix(455 0 0 -361 -182340.094 713490.188)"><stop offset="0" stop-color="#DFDFDF"/><stop offset="1" stop-color="#F8F8F8"/></linearGradient><path fill="url(#ac)" d="M1478.5 614.1l476.5-66L1770.7 236z"/><linearGradient id="ad" gradientUnits="userSpaceOnUse" x1="403.715" y1="1976.858" x2="404.762" y2="1975.811" gradientTransform="matrix(368 0 0 -296 -147486.188 585171.188)"><stop offset="0" stop-color="#E4E4E4"/><stop offset="1" stop-color="#ddd"/></linearGradient><path fill="url(#ad)" d="M1079.4 22.3l385.5 79.6-280.7 230.4z"/><linearGradient id="ae" gradientUnits="userSpaceOnUse" x1="403.17" y1="1976.019" x2="404.217" y2="1974.972" gradientTransform="matrix(281 0 0 -332 -112151.063 656423.188)"><stop offset="0" stop-color="#C3C3C3"/><stop offset="1" stop-color="#C2C2C2"/></linearGradient><path fill="url(#ae)" d="M1244.9 680.1l233.6-66-294.3-281.8z"/><linearGradient id="af" gradientUnits="userSpaceOnUse" x1="403.247" y1="1978.86" x2="404.295" y2="1977.812" gradientTransform="matrix(268 0 0 -220 -106886.063 435451.063)"><stop offset="0" stop-color="#EAEAEA"/><stop offset="1" stop-color="#DEDEDE"/></linearGradient><path fill="url(#af)" d="M1442.9 274.7l22-172.8-280.7 230.4z"/><linearGradient id="ag" gradientUnits="userSpaceOnUse" x1="403.514" y1="1976.499" x2="404.561" y2="1975.451" gradientTransform="matrix(281 0 0 -324 -112151.063 640600.188)"><stop offset="0" stop-color="#ddd"/><stop offset="1" stop-color="#C9C9C9"/></linearGradient><path fill="url(#ag)" d="M1442.9 274.7l35.6 339.4-294.3-281.8z"/><linearGradient id="ah" gradientUnits="userSpaceOnUse" x1="403.56" y1="1976.938" x2="404.607" y2="1975.89" gradientTransform="matrix(318 0 0 -296 -127454.172 585171.188)"><stop offset="0" stop-color="#D1D1D1"/><stop offset="1" stop-color="#D0D0D0"/></linearGradient><path fill="url(#ah)" d="M851.1 135.4l228.3-113.1 104.8 310z"/><linearGradient id="ai" gradientUnits="userSpaceOnUse" x1="403.405" y1="1974.521" x2="404.452" y2="1973.473" gradientTransform="matrix(318 0 0 -481 -127454.172 949914.125)"><stop offset="0" stop-color="#C7C7C7"/><stop offset="1" stop-color="#BEBEBE"/></linearGradient><path fill="url(#ai)" d="M851.1 135.4l39.8 503.8 293.3-306.9z"/><linearGradient id="aj" gradientUnits="userSpaceOnUse" x1="403.557" y1="1976.163" x2="404.605" y2="1975.115" gradientTransform="matrix(338 0 0 -332 -135516.172 656423.188)"><stop offset="0" stop-color="#D6D6D6"/><stop offset="1" stop-color="#C6C6C6"/></linearGradient><path fill="url(#aj)" d="M890.9 639.2l354 40.9-60.7-347.8z"/><linearGradient id="ak" gradientUnits="userSpaceOnUse" x1="403.593" y1="1976.054" x2="404.641" y2="1975.006" gradientTransform="matrix(352 0 0 -325 -140626.188 643482.188)"><stop offset="0" stop-color="#E6E6E6"/><stop offset="1" stop-color="#FAFAFA"/></linearGradient><path fill="url(#ak)" d="M1477.4 1228.9l77.5 340.4 291.2-125.7z"/><linearGradient id="al" gradientUnits="userSpaceOnUse" x1="403.858" y1="1977.336" x2="404.905" y2="1976.288" gradientTransform="matrix(352 0 0 -272 -140626.188 538952.188)"><stop offset="0" stop-color="#E5E5E5"/><stop offset="1" stop-color="#FAFAFA"/></linearGradient><path fill="url(#al)" d="M1477.4 1228.9l308-70.2 60.7 284.9z"/><linearGradient id="am" gradientUnits="userSpaceOnUse" x1="403.85" y1="1982.263" x2="404.826" y2="1981.287" gradientTransform="matrix(457 0 0 -146 -184625.094 290951.031)"><stop offset="0" stop-color="#E2E2E2"/><stop offset="1" stop-color="#E9E9E9"/></linearGradient><path fill="url(#am)" d="M0 1603.5v-83.8L412.2 1673z"/><linearGradient id="an" gradientUnits="userSpaceOnUse" x1="404.082" y1="1977.932" x2="405.13" y2="1976.884" gradientTransform="matrix(650 0 0 -236 -262333.25 468251.063)"><stop offset="0" stop-color="#E7E7E7"/><stop offset="1" stop-color="#E0E0E0"/></linearGradient><path fill="url(#an)" d="M725.4 1425.8L1093 1651l-680.8 22z"/></g><g opacity=".2"><linearGradient id="ao" gradientUnits="userSpaceOnUse" x1="403.685" y1="1970.114" x2="404.733" y2="1969.067" gradientTransform="matrix(396 0 0 -352 -159616.188 696204.188)"><stop offset="0" stop-color="#BABABA"/><stop offset="1" stop-color="#BCBCBC"/></linearGradient><path fill="url(#ao)" d="M590.3 2716.1l76.4 368.7-414.7-36.7z"/><linearGradient id="ap" gradientUnits="userSpaceOnUse" x1="403.213" y1="1968.973" x2="404.26" y2="1967.926" gradientTransform="matrix(282 0 0 -169 -112558.063 335887.031)"><stop offset="0" stop-color="#D6D6D6"/><stop offset="1" stop-color="#C6C6C6"/></linearGradient><path fill="url(#ap)" d="M1182.1 3287l295.3-52.4-137.2-124.7z"/><linearGradient id="aq" gradientUnits="userSpaceOnUse" x1="403.878" y1="1968.261" x2="404.925" y2="1967.214" gradientTransform="matrix(425 0 0 -119 -170322.188 237337.031)"><stop offset="0" stop-color="#D3D3D3"/><stop offset="1" stop-color="#DBDBDB"/></linearGradient><path fill="url(#aq)" d="M1477.4 3234.6l308-70.2-445.2-54.5z"/><linearGradient id="ar" gradientUnits="userSpaceOnUse" x1="403.77" y1="1969.319" x2="404.817" y2="1968.271" gradientTransform="matrix(396 0 0 -183 -159616.188 363422.031)"><stop offset="0" stop-color="#CACACA"/><stop offset="1" stop-color="#F2F2F2"/></linearGradient><path fill="url(#ar)" d="M252 3048.1l414.7 36.7-236.7 155z"/><linearGradient id="as" gradientUnits="userSpaceOnUse" x1="403.067" y1="1969.776" x2="404.114" y2="1968.728" gradientTransform="matrix(282 0 0 -304 -113276.063 602096.188)"><stop offset="0" stop-color="#D6D6D6"/><stop offset="1" stop-color="#C6C6C6"/></linearGradient><path fill="url(#as)" d="M442.6 3558.2l282.8-126.7L430 3239.8z"/><linearGradient id="at" gradientUnits="userSpaceOnUse" x1="403.306" y1="1970.124" x2="404.353" y2="1969.076" gradientTransform="matrix(282 0 0 -331 -113276.063 655165.188)"><stop offset="0" stop-color="#E7E7E7"/><stop offset="1" stop-color="#E0E0E0"/></linearGradient><path fill="url(#at)" d="M666.7 3084.8l58.7 346.7L430 3239.8z"/><linearGradient id="au" gradientUnits="userSpaceOnUse" x1="402.831" y1="1969.939" x2="403.878" y2="1968.892" gradientTransform="matrix(254 0 0 -346 -102190.063 684695.188)"><stop offset="0" stop-color="#BABABA"/><stop offset="1" stop-color="#BCBCBC"/></linearGradient><path fill="url(#au)" d="M252 3048.1l178 191.7-266 170.7z"/><linearGradient id="av" gradientUnits="userSpaceOnUse" x1="403.17" y1="1970.032" x2="404.218" y2="1968.984" gradientTransform="matrix(266 0 0 -304 -107050.063 602096.188)"><stop offset="0" stop-color="#CACACA"/><stop offset="1" stop-color="#F2F2F2"/></linearGradient><path fill="url(#av)" d="M430 3239.8l12.6 318.4L164 3410.5z"/><linearGradient id="aw" gradientUnits="userSpaceOnUse" x1="403.546" y1="1970.133" x2="404.593" y2="1969.086" gradientTransform="matrix(350 0 0 -346 -141336.188 684695.188)"><stop offset="0" stop-color="#D5D5D5"/><stop offset="1" stop-color="#D2D2D2"/></linearGradient><path fill="url(#aw)" d="M164 3410.5l88-362.4-366.6 286z"/><linearGradient id="ax" gradientUnits="userSpaceOnUse" x1="402.42" y1="1970.155" x2="403.467" y2="1969.108" gradientTransform="matrix(211 0 0 -396 -84658.047 782224.125)"><stop offset="0" stop-color="#C7C7C7"/><stop offset="1" stop-color="#BEBEBE"/></linearGradient><path fill="url(#ax)" d="M286.5 2393.5l11.6-414.8 209.4 255.6z"/><linearGradient id="ay" gradientUnits="userSpaceOnUse" x1="403.345" y1="1970.49" x2="404.392" y2="1969.443" gradientTransform="matrix(290 0 0 -460 -116653.156 908612.125)"><stop offset="0" stop-color="#D6D6D6"/><stop offset="1" stop-color="#C6C6C6"/></linearGradient><path fill="url(#ay)" d="M286.5 2393.5l303.8 322.6-82.8-481.8z"/><linearGradient id="az" gradientUnits="userSpaceOnUse" x1="403.576" y1="1969.564" x2="404.624" y2="1968.516" gradientTransform="matrix(380 0 0 -219 -151978.188 433261.063)"><stop offset="0" stop-color="#F5F5F5"/><stop offset="1" stop-color="#F7F7F7"/></linearGradient><path fill="url(#az)" d="M1464.9 2107.6l37.7-229.4 360.3 193.8z"/><linearGradient id="aA" gradientUnits="userSpaceOnUse" x1="403.878" y1="1969.998" x2="404.926" y2="1968.951" gradientTransform="matrix(344 0 0 -220 -137362.172 435197.063)"><stop offset="0" stop-color="#F6F6F6"/><stop offset="1" stop-color="#F8F8F8"/></linearGradient><path fill="url(#aA)" d="M1502.6 1878.2l334.1-36.7 26.2 230.5z"/><linearGradient id="aB" gradientUnits="userSpaceOnUse" x1="403.353" y1="1970.265" x2="404.401" y2="1969.217" gradientTransform="matrix(282 0 0 -315 -112938.063 622305.188)"><stop offset="0" stop-color="#EDEDED"/><stop offset="1" stop-color="#ddd"/></linearGradient><path fill="url(#aB)" d="M1093 1651l-13.6 377-295.3-43z"/><linearGradient id="aC" gradientUnits="userSpaceOnUse" x1="404.008" y1="1969.997" x2="405.055" y2="1968.95" gradientTransform="matrix(464 0 0 -244 -187112.094 482632.063)"><stop offset="0" stop-color="#BABABA"/><stop offset="1" stop-color="#BCBCBC"/></linearGradient><path fill="url(#aC)" d="M298.1 1978.7l209.4 255.6L784.1 1985z"/><linearGradient id="aD" gradientUnits="userSpaceOnUse" x1="403.423" y1="1969.811" x2="404.471" y2="1968.763" gradientTransform="matrix(328 0 0 -238 -131832.172 470812.063)"><stop offset="0" stop-color="#BEBEBE"/><stop offset="1" stop-color="#D0D0D0"/></linearGradient><path fill="url(#aD)" d="M507.5 2234.3l343.6-93.2-67-156.1z"/><linearGradient id="aE" gradientUnits="userSpaceOnUse" x1="403.257" y1="1969.169" x2="404.305" y2="1968.121" gradientTransform="matrix(282 0 0 -149 -112938.063 295393.031)"><stop offset="0" stop-color="#D3D3D3"/><stop offset="1" stop-color="#D7D7D7"/></linearGradient><path fill="url(#aE)" d="M851.1 2141.1l228.3-113.1-295.3-43z"/><linearGradient id="aF" gradientUnits="userSpaceOnUse" x1="403.687" y1="1970.33" x2="404.735" y2="1969.283" gradientTransform="matrix(403 0 0 -404 -162810.188 797992.125)"><stop offset="0" stop-color="#D6D6D6"/><stop offset="1" stop-color="#C6C6C6"/></linearGradient><path fill="url(#aF)" d="M286.5 2393.5l11.6-414.8-422.1 423.2z"/><linearGradient id="aG" gradientUnits="userSpaceOnUse" x1="403.381" y1="1970.591" x2="404.712" y2="1969.26" gradientTransform="matrix(344 0 0 -332 -138733.172 655748.188)"><stop offset="0" stop-color="#E1E1E1"/><stop offset="1" stop-color="#D4D4D4"/></linearGradient><path fill="url(#aG)" d="M-5.9 1602.5l304 376.2L412.2 1673z"/><linearGradient id="aH" gradientUnits="userSpaceOnUse" x1="403.599" y1="1970.484" x2="404.647" y2="1969.437" gradientTransform="matrix(403 0 0 -610 -162810.188 1203812.25)"><stop offset="0" stop-color="#C3C3C3"/><stop offset="1" stop-color="#C2C2C2"/></linearGradient><path fill="url(#aH)" d="M-124 2401.9l422.1-423.2L-82.1 1763z"/><linearGradient id="aI" gradientUnits="userSpaceOnUse" x1="403.387" y1="1970.354" x2="404.635" y2="1969.106" gradientTransform="matrix(363 0 0 -290 -146570.188 573008.188)"><stop offset="0" stop-color="#E4E4E4"/><stop offset="1" stop-color="#DADADA"/></linearGradient><path fill="url(#aI)" d="M-5.9 1602.5l304 376.2L-82.1 1763z"/><linearGradient id="aJ" gradientUnits="userSpaceOnUse" x1="403.466" y1="1970.22" x2="404.514" y2="1969.172" gradientTransform="matrix(366 0 0 -460 -147222.188 908612.125)"><stop offset="0" stop-color="#ddd"/><stop offset="1" stop-color="#C9C9C9"/></linearGradient><path fill="url(#aJ)" d="M507.5 2234.3l82.8 481.8 300.6-71.2z"/><linearGradient id="aK" gradientUnits="userSpaceOnUse" x1="403.82" y1="1970.608" x2="404.867" y2="1969.56" gradientTransform="matrix(366 0 0 -481 -147222.188 949914.125)"><stop offset="0" stop-color="#D1D1D1"/><stop offset="1" stop-color="#D0D0D0"/></linearGradient><path fill="url(#aK)" d="M507.5 2234.3l343.6-93.2 39.8 503.8z"/><linearGradient id="aL" gradientUnits="userSpaceOnUse" x1="403.336" y1="1970.35" x2="404.384" y2="1969.303" gradientTransform="matrix(287 0 0 -420 -115148.063 830164.125)"><stop offset="0" stop-color="#D6D6D6"/><stop offset="1" stop-color="#C6C6C6"/></linearGradient><path fill="url(#aL)" d="M590.3 2716.1l76.4 368.7 224.2-439.9z"/><linearGradient id="aM" gradientUnits="userSpaceOnUse" x1="403.46" y1="1969.89" x2="404.507" y2="1968.843" gradientTransform="matrix(304 0 0 -278 -121621.172 550617.188)"><stop offset="0" stop-color="#D0D0D0"/><stop offset="1" stop-color="#C0C0C0"/></linearGradient><path fill="url(#aM)" d="M1182.1 3287l158.1-177.1-318.4-114.1z"/><linearGradient id="aN" gradientUnits="userSpaceOnUse" x1="403.423" y1="1970.245" x2="404.471" y2="1969.197" gradientTransform="matrix(304 0 0 -405 -121621.172 800638.125)"><stop offset="0" stop-color="#B9B9B9"/><stop offset="1" stop-color="#BABABA"/></linearGradient><path fill="url(#aN)" d="M1244.9 2685.7l95.3 424.2-318.4-114.1z"/><linearGradient id="aO" gradientUnits="userSpaceOnUse" x1="403.589" y1="1970.281" x2="404.637" y2="1969.234" gradientTransform="matrix(339 0 0 -416 -136135.172 822615.125)"><stop offset="0" stop-color="#D3D3D3"/><stop offset="1" stop-color="#ccc"/></linearGradient><path fill="url(#aO)" d="M666.7 3084.8l58.7 346.7 296.4-435.7z"/><linearGradient id="aP" gradientUnits="userSpaceOnUse" x1="403.449" y1="1970.187" x2="404.497" y2="1969.139" gradientTransform="matrix(339 0 0 -420 -136135.172 830164.125)"><stop offset="0" stop-color="#C3C3C3"/><stop offset="1" stop-color="#C2C2C2"/></linearGradient><path fill="url(#aP)" d="M666.7 3084.8l224.2-439.9 130.9 350.9z"/><linearGradient id="aQ" gradientUnits="userSpaceOnUse" x1="403.784" y1="1970.146" x2="404.831" y2="1969.099" gradientTransform="matrix(436 0 0 -416 -175364.094 822615.125)"><stop offset="0" stop-color="#bbb"/><stop offset="1" stop-color="#D8D8D8"/></linearGradient><path fill="url(#aQ)" d="M725.4 3431.5l456.7-144.5-160.3-291.2z"/><linearGradient id="aR" gradientUnits="userSpaceOnUse" x1="403.637" y1="1970.169" x2="404.685" y2="1969.121" gradientTransform="matrix(338 0 0 -335 -135516.172 662629.188)"><stop offset="0" stop-color="#D1D1D1"/><stop offset="1" stop-color="#D0D0D0"/></linearGradient><path fill="url(#aR)" d="M890.9 2644.9l354 40.8-223.1 310.1z"/><linearGradient id="aS" gradientUnits="userSpaceOnUse" x1="403.826" y1="1969.442" x2="404.873" y2="1968.394" gradientTransform="matrix(392 0 0 -167 -158355.188 331261.031)"><stop offset="0" stop-color="#BABABA"/><stop offset="1" stop-color="#BCBCBC"/></linearGradient><path fill="url(#aS)" d="M-124 2401.9l410.5-8.4-136.1 174.9z"/><linearGradient id="aT" gradientUnits="userSpaceOnUse" x1="403.71" y1="1969.999" x2="404.757" y2="1968.952" gradientTransform="matrix(420 0 0 -308 -169433.188 609172.188)"><stop offset="0" stop-color="#D1D1D1"/><stop offset="1" stop-color="#D0D0D0"/></linearGradient><path fill="url(#aT)" d="M286.5 2393.5l303.8 322.6-439.9-147.7z"/><linearGradient id="aU" gradientUnits="userSpaceOnUse" x1="403.013" y1="1970.466" x2="404.06" y2="1969.419" gradientTransform="matrix(223 0 0 -468 -88603.055 924748.125)"><stop offset="0" stop-color="#D3D3D3"/><stop offset="1" stop-color="#ccc"/></linearGradient><path fill="url(#aU)" d="M1244.9 2685.7l95.3 424.2 138.3-490.1z"/><linearGradient id="aV" gradientUnits="userSpaceOnUse" x1="403.757" y1="1970.269" x2="404.805" y2="1969.222" gradientTransform="matrix(425 0 0 -520 -170322.188 1027240.125)"><stop offset="0" stop-color="#D6D6D6"/><stop offset="1" stop-color="#E6E6E6"/></linearGradient><path fill="url(#aV)" d="M1340.2 3109.9l445.2 54.5-306.9-544.6z"/><linearGradient id="aW" gradientUnits="userSpaceOnUse" x1="403.497" y1="1969.848" x2="404.545" y2="1968.801" gradientTransform="matrix(282 0 0 -249 -112558.063 493686.063)"><stop offset="0" stop-color="#E7E7E7"/><stop offset="1" stop-color="#E0E0E0"/></linearGradient><path fill="url(#aW)" d="M1182.1 3287l295.3-52.4-111 260.8z"/><linearGradient id="aX" gradientUnits="userSpaceOnUse" x1="402.39" y1="1969.946" x2="403.437" y2="1968.898" gradientTransform="matrix(180 0 0 -325 -71072.039 643482.188)"><stop offset="0" stop-color="#ECECEC"/><stop offset="1" stop-color="#E7E7E7"/></linearGradient><path fill="url(#aX)" d="M1366.4 3495.4l111-260.8 77.5 340.4z"/><linearGradient id="aY" gradientUnits="userSpaceOnUse" x1="403.037" y1="1969.918" x2="404.084" y2="1968.87" gradientTransform="matrix(261 0 0 -353 -104138.063 698720.188)"><stop offset="0" stop-color="#ECECEC"/><stop offset="1" stop-color="#EFEFEF"/></linearGradient><path fill="url(#aY)" d="M1182.1 3287l184.3 208.4-273.4 161.3z"/><linearGradient id="aZ" gradientUnits="userSpaceOnUse" x1="404.035" y1="1970.225" x2="405.082" y2="1969.178" gradientTransform="matrix(436 0 0 -353 -175364.094 698720.188)"><stop offset="0" stop-color="#CACACA"/><stop offset="1" stop-color="#F2F2F2"/></linearGradient><path fill="url(#aZ)" d="M725.4 3431.5l456.7-144.5-89.1 369.7z"/><linearGradient id="ba" gradientUnits="userSpaceOnUse" x1="403.078" y1="1970.374" x2="404.125" y2="1969.327" gradientTransform="matrix(262 0 0 -401 -105705.063 792483.125)"><stop offset="0" stop-color="#C7C7C7"/><stop offset="1" stop-color="#BEBEBE"/></linearGradient><path fill="url(#ba)" d="M-124 2401.9l274.4 166.5-63.9 253.5z"/><linearGradient id="bb" gradientUnits="userSpaceOnUse" x1="402.262" y1="1970.568" x2="403.309" y2="1969.521" gradientTransform="matrix(201 0 0 -890 -81000.047 1756302.375)"><stop offset="0" stop-color="#C3C3C3"/><stop offset="1" stop-color="#C2C2C2"/></linearGradient><path fill="url(#bb)" d="M-124 2401.9l9.4 932.2 201.1-512.2z"/><linearGradient id="bc" gradientUnits="userSpaceOnUse" x1="403.768" y1="1969.619" x2="404.815" y2="1968.571" gradientTransform="matrix(481 0 0 -242 -194199.109 479253.063)"><stop offset="0" stop-color="#BABABA"/><stop offset="1" stop-color="#BCBCBC"/></linearGradient><path fill="url(#bc)" d="M150.4 2568.4l439.9 147.7-503.8 105.8z"/><linearGradient id="bd" gradientUnits="userSpaceOnUse" x1="404.007" y1="1970.127" x2="405.054" y2="1969.079" gradientTransform="matrix(481 0 0 -317 -194199.109 627219.188)"><stop offset="0" stop-color="#D6D6D6"/><stop offset="1" stop-color="#C6C6C6"/></linearGradient><path fill="url(#bd)" d="M252 3048.1l338.3-332-503.8 105.8z"/><linearGradient id="be" gradientUnits="userSpaceOnUse" x1="403.375" y1="1970.253" x2="404.422" y2="1969.205" gradientTransform="matrix(350 0 0 -489 -141336.188 966332.125)"><stop offset="0" stop-color="#D4D4D4"/><stop offset="1" stop-color="#B5B5B5"/></linearGradient><path fill="url(#be)" d="M-114.6 3334.1l366.6-286-165.5-226.2z"/><linearGradient id="bf" gradientUnits="userSpaceOnUse" x1="402.846" y1="1970.091" x2="403.922" y2="1969.015" gradientTransform="matrix(235 0 0 -315 -93632.055 622305.188)"><stop offset="0" stop-color="#F2F2F2"/><stop offset="1" stop-color="#EDEDED"/></linearGradient><path fill="url(#bf)" d="M1093 1651l-13.6 377 234.6-173.9z"/><linearGradient id="bg" gradientUnits="userSpaceOnUse" x1="403.691" y1="1969.884" x2="404.738" y2="1968.837" gradientTransform="matrix(368 0 0 -242 -147486.188 478571.063)"><stop offset="0" stop-color="#E9E9E9"/><stop offset="1" stop-color="#F2F2F2"/></linearGradient><path fill="url(#bg)" d="M1079.4 2028l385.5 79.6-150.9-253.5z"/><linearGradient id="bh" gradientUnits="userSpaceOnUse" x1="402.607" y1="1970.089" x2="403.655" y2="1969.042" gradientTransform="matrix(180 0 0 -242 -71122.039 478571.063)"><stop offset="0" stop-color="#F4F4F4"/><stop offset="1" stop-color="#F4F4F4"/></linearGradient><path fill="url(#bh)" d="M1464.9 2107.6l37.7-229.4-188.6-24.1z"/><linearGradient id="bi" gradientUnits="userSpaceOnUse" x1="404.274" y1="1969.947" x2="405.502" y2="1968.718" gradientTransform="matrix(683 0 0 -202 -275072.25 399529.063)"><stop offset="0" stop-color="#F6F6F6"/><stop offset="1" stop-color="#F7F7F7"/></linearGradient><path fill="url(#bi)" d="M1093 1651l221 203.1 469.3-211.6z"/><linearGradient id="bj" gradientUnits="userSpaceOnUse" x1="403.992" y1="1969.891" x2="405.039" y2="1968.844" gradientTransform="matrix(448 0 0 -225 -179662.094 444862.063)"><stop offset="0" stop-color="#F6F6F6"/><stop offset="1" stop-color="#F7F7F7"/></linearGradient><path fill="url(#bj)" d="M1314 1854.1l188.6 24.1 280.7-235.7z"/><linearGradient id="bk" gradientUnits="userSpaceOnUse" x1="403.531" y1="1969.823" x2="404.578" y2="1968.775" gradientTransform="matrix(319 0 0 -225 -127237.172 444862.063)"><stop offset="0" stop-color="#F7F7F7"/><stop offset="1" stop-color="#F9F9F9"/></linearGradient><path fill="url(#bk)" d="M1502.6 1878.2l334.1-36.7-53.4-199z"/><linearGradient id="bl" gradientUnits="userSpaceOnUse" x1="404.05" y1="1970.499" x2="405.098" y2="1969.452" gradientTransform="matrix(445 0 0 -520 -178290.094 1027240.125)"><stop offset="0" stop-color="#E3E3E3"/><stop offset="1" stop-color="#FBFBFB"/></linearGradient><path fill="url(#bl)" d="M1478.5 2619.8l306.9 544.6 159.2-343.5z"/><linearGradient id="bm" gradientUnits="userSpaceOnUse" x1="404.194" y1="1970.033" x2="405.242" y2="1968.986" gradientTransform="matrix(455 0 0 -255 -182340.094 504862.063)"><stop offset="0" stop-color="#E0E0E0"/><stop offset="1" stop-color="#FAFAFA"/></linearGradient><path fill="url(#bm)" d="M1478.5 2619.8l476.5-66-10.4 267.1z"/><linearGradient id="bn" gradientUnits="userSpaceOnUse" x1="403.334" y1="1969.121" x2="404.381" y2="1968.073" gradientTransform="matrix(313 0 0 -165 -124864.172 327046.031)"><stop offset="0" stop-color="#F0F0F0"/><stop offset="1" stop-color="#F5F5F5"/></linearGradient><path fill="url(#bn)" d="M1442.9 2280.4l22-172.8 305.8 134z"/><linearGradient id="bo" gradientUnits="userSpaceOnUse" x1="403.566" y1="1970.246" x2="404.613" y2="1969.198" gradientTransform="matrix(313 0 0 -361 -124864.172 713490.188)"><stop offset="0" stop-color="#EBEBEB"/><stop offset="1" stop-color="#E5E5E5"/></linearGradient><path fill="url(#bo)" d="M1442.9 2280.4l35.6 339.4 292.2-378.2z"/><linearGradient id="bp" gradientUnits="userSpaceOnUse" x1="403.999" y1="1969.504" x2="405.046" y2="1968.457" gradientTransform="matrix(380 0 0 -162 -151978.188 321099.031)"><stop offset="0" stop-color="#F6F6F6"/><stop offset="1" stop-color="#F8F8F8"/></linearGradient><path fill="url(#bp)" d="M1464.9 2107.6l398-35.6-92.2 169.6z"/><linearGradient id="bq" gradientUnits="userSpaceOnUse" x1="403.896" y1="1970.116" x2="404.943" y2="1969.069" gradientTransform="matrix(455 0 0 -361 -182340.094 713490.188)"><stop offset="0" stop-color="#DFDFDF"/><stop offset="1" stop-color="#F8F8F8"/></linearGradient><path fill="url(#bq)" d="M1478.5 2619.8l476.5-66-184.3-312.2z"/><linearGradient id="br" gradientUnits="userSpaceOnUse" x1="403.854" y1="1970.087" x2="404.813" y2="1969.128" gradientTransform="matrix(456 0 0 -332 -183872.094 655748.188)"><stop offset="0" stop-color="#CBCBCB"/><stop offset="1" stop-color="#E2E2E2"/></linearGradient><path fill="url(#br)" d="M298.1 1978.7L412.2 1673l363.5 73.2z"/><linearGradient id="bs" gradientUnits="userSpaceOnUse" x1="403.904" y1="1969.861" x2="404.951" y2="1968.814" gradientTransform="matrix(464 0 0 -228 -187112.094 450874.063)"><stop offset="0" stop-color="#C5C5C5"/><stop offset="1" stop-color="#D6D6D6"/></linearGradient><path fill="url(#bs)" d="M298.1 1978.7l486 6.3-8.4-238.8z"/><linearGradient id="bt" gradientUnits="userSpaceOnUse" x1="404.463" y1="1968.61" x2="405.259" y2="1967.814" gradientTransform="matrix(612 0 0 -110 -246929.234 218186.031)"><stop offset="0" stop-color="#D1D1D1"/><stop offset="1" stop-color="#D0D0D0"/></linearGradient><path fill="url(#bt)" d="M412.2 1673l680.8-22-317.3 95.2z"/><linearGradient id="bu" gradientUnits="userSpaceOnUse" x1="403.323" y1="1970.131" x2="404.37" y2="1969.084" gradientTransform="matrix(279 0 0 -274 -111731.063 541494.188)"><stop offset="0" stop-color="#DCDCDC"/><stop offset="1" stop-color="#EBEBEB"/></linearGradient><path fill="url(#bu)" d="M784.1 1985l308.9-334-317.3 95.2z"/><linearGradient id="bv" gradientUnits="userSpaceOnUse" x1="403.715" y1="1970.082" x2="404.762" y2="1969.035" gradientTransform="matrix(368 0 0 -296 -147486.188 585171.188)"><stop offset="0" stop-color="#E4E4E4"/><stop offset="1" stop-color="#ddd"/></linearGradient><path fill="url(#bv)" d="M1079.4 2028l385.5 79.6-280.7 230.4z"/><linearGradient id="bw" gradientUnits="userSpaceOnUse" x1="403.17" y1="1969.978" x2="404.217" y2="1968.93" gradientTransform="matrix(281 0 0 -332 -112151.063 656423.188)"><stop offset="0" stop-color="#C3C3C3"/><stop offset="1" stop-color="#C2C2C2"/></linearGradient><path fill="url(#bw)" d="M1244.9 2685.7l233.6-65.9-294.3-281.8z"/><linearGradient id="bx" gradientUnits="userSpaceOnUse" x1="403.247" y1="1969.743" x2="404.295" y2="1968.696" gradientTransform="matrix(268 0 0 -220 -106886.063 435451.063)"><stop offset="0" stop-color="#EAEAEA"/><stop offset="1" stop-color="#DEDEDE"/></linearGradient><path fill="url(#bx)" d="M1442.9 2280.4l22-172.8-280.7 230.4z"/><linearGradient id="by" gradientUnits="userSpaceOnUse" x1="403.514" y1="1970.308" x2="404.561" y2="1969.261" gradientTransform="matrix(281 0 0 -324 -112151.063 640600.188)"><stop offset="0" stop-color="#ddd"/><stop offset="1" stop-color="#C9C9C9"/></linearGradient><path fill="url(#by)" d="M1442.9 2280.4l35.6 339.4-294.3-281.8z"/><linearGradient id="bz" gradientUnits="userSpaceOnUse" x1="403.56" y1="1970.162" x2="404.607" y2="1969.115" gradientTransform="matrix(318 0 0 -296 -127454.172 585171.188)"><stop offset="0" stop-color="#D1D1D1"/><stop offset="1" stop-color="#D0D0D0"/></linearGradient><path fill="url(#bz)" d="M851.1 2141.1l228.3-113.1 104.8 310z"/><linearGradient id="bA" gradientUnits="userSpaceOnUse" x1="403.405" y1="1970.351" x2="404.452" y2="1969.304" gradientTransform="matrix(318 0 0 -481 -127454.172 949914.125)"><stop offset="0" stop-color="#C7C7C7"/><stop offset="1" stop-color="#BEBEBE"/></linearGradient><path fill="url(#bA)" d="M851.1 2141.1l39.8 503.8 293.3-306.9z"/><linearGradient id="bB" gradientUnits="userSpaceOnUse" x1="403.557" y1="1970.122" x2="404.605" y2="1969.074" gradientTransform="matrix(338 0 0 -332 -135516.172 656423.188)"><stop offset="0" stop-color="#D6D6D6"/><stop offset="1" stop-color="#C6C6C6"/></linearGradient><path fill="url(#bB)" d="M890.9 2644.9l354 40.8-60.7-347.7z"/><linearGradient id="bC" gradientUnits="userSpaceOnUse" x1="403.593" y1="1969.882" x2="404.641" y2="1968.835" gradientTransform="matrix(352 0 0 -325 -140626.188 643482.188)"><stop offset="0" stop-color="#E6E6E6"/><stop offset="1" stop-color="#FAFAFA"/></linearGradient><path fill="url(#bC)" d="M1477.4 3234.6l77.5 340.4 291.2-125.7z"/><linearGradient id="bD" gradientUnits="userSpaceOnUse" x1="403.858" y1="1969.962" x2="404.905" y2="1968.915" gradientTransform="matrix(352 0 0 -272 -140626.188 538952.188)"><stop offset="0" stop-color="#E5E5E5"/><stop offset="1" stop-color="#FAFAFA"/></linearGradient><path fill="url(#bD)" d="M1477.4 3234.6l308-70.2 60.7 284.9z"/></g></g></svg>